<svg id="Layer_1" data-name="Layer 1" xmlns="http://www.w3.org/2000/svg" viewBox="0 0 676.64 96.84"><title>seven-corners-logo</title><path d="M199.12,65.32a16.09,16.09,0,0,0,8.15,2.29c4.65,0,7.37-2.46,7.37-6,0-3.3-1.88-5.18-6.64-7-5.75-2-9.3-5-9.3-10,0-5.48,4.55-9.56,11.39-9.56a16,16,0,0,1,7.79,1.72l-1.25,3.71a14,14,0,0,0-6.69-1.68c-4.81,0-6.64,2.88-6.64,5.28,0,3.29,2.14,4.91,7,6.79,6,2.3,9,5.18,9,10.35,0,5.43-4,10.19-12.34,10.19a18.14,18.14,0,0,1-9-2.3Z" transform="translate(-9.18 -6.08)" fill="#fff"/><path d="M258.38,54.34H244.69V67h15.26v3.82h-19.8V35.64h19v3.81H244.69V50.58h13.69v3.76Z" transform="translate(-9.18 -6.08)" fill="#fff"/><path d="M288.68,70.86L277.19,35.64h4.91L287.59,53c1.52,4.75,2.83,9,3.77,13.16h0.1c1-4.08,2.46-8.52,4-13.12l6-17.4h4.86L293.71,70.86h-5Z" transform="translate(-9.18 -6.08)" fill="#fff"/><path d="M343,54.34H329.29V67h15.26v3.82h-19.8V35.64h19v3.81H329.29V50.58H343v3.76Z" transform="translate(-9.18 -6.08)" fill="#fff"/><path d="M365.08,70.86V35.64h5l11.29,17.82a101.08,101.08,0,0,1,6.33,11.44l0.11-.05c-0.42-4.69-.53-9-0.53-14.47V35.64h4.29V70.86h-4.6L375.75,53a111.48,111.48,0,0,1-6.59-11.77l-0.15.06c0.26,4.44.36,8.67,0.36,14.52V70.86h-4.29Z" transform="translate(-9.18 -6.08)" fill="#fff"/><path d="M439.76,70a23.78,23.78,0,0,1-8.89,1.46c-13.17,0-19-8.26-19-17.61,0-12.44,9.09-18.76,19.6-18.76a21.07,21.07,0,0,1,8.83,1.57L438.5,44A17.17,17.17,0,0,0,432,42.79c-5.43,0-10.14,3.19-10.14,10.4,0,6.43,3.82,10.4,10.29,10.4a19.51,19.51,0,0,0,6.33-1Z" transform="translate(-9.18 -6.08)" fill="#fff"/><path d="M484.59,52.88c0,11.34-6.8,18.55-17.66,18.55S450,63.23,450,53.45c0-10.25,6.74-18.39,17.51-18.39C478.85,35.06,484.59,43.48,484.59,52.88ZM460,53.3C460,59.88,462.86,64,467.4,64s7.21-4.44,7.21-10.76c0-6.06-2.71-10.66-7.26-10.66S460,46.81,460,53.3Z" transform="translate(-9.18 -6.08)" fill="#fff"/><path d="M498,36.1a77.31,77.31,0,0,1,11.39-.74c5.39,0,9.25.74,11.92,2.72a9.1,9.1,0,0,1,3.5,7.68,9.37,9.37,0,0,1-6.06,8.52V54.5c2.35,1,3.6,3.24,4.49,6.27,1.1,3.61,2.25,8.73,2.93,10.09h-9.67a48.68,48.68,0,0,1-2.46-8.1c-0.94-4.23-2.25-5.13-5.17-5.13h-1.52V70.86H498V36.1Zm9.35,14.79h2.46c3.55,0,5.59-1.78,5.59-4.39s-1.73-4.12-4.86-4.18a16.1,16.1,0,0,0-3.19.21v8.36Z" transform="translate(-9.18 -6.08)" fill="#fff"/><path d="M538.57,70.86V35.64h11.13l5.59,10.82a100.59,100.59,0,0,1,5.54,12.33H561a132.59,132.59,0,0,1-.74-14.84V35.64h8.62V70.86h-9.93l-6-11.71a130.38,130.38,0,0,1-6-12.75h-0.15c0.21,4.75.32,10.08,0.32,15.78v8.68h-8.63Z" transform="translate(-9.18 -6.08)" fill="#fff"/><path d="M605.87,56.64H593.23v6.48h14.16v7.73H583.77V35.64h22.89v7.68H593.23V49h12.64v7.64Z" transform="translate(-9.18 -6.08)" fill="#fff"/><path d="M621,36.1a77.3,77.3,0,0,1,11.39-.74c5.38,0,9.25.74,11.91,2.72a9.08,9.08,0,0,1,3.5,7.68,9.38,9.38,0,0,1-6.06,8.52V54.5c2.35,1,3.61,3.24,4.5,6.27,1.1,3.61,2.25,8.73,2.92,10.09h-9.66a48.56,48.56,0,0,1-2.46-8.1c-0.94-4.23-2.24-5.13-5.17-5.13h-1.52V70.86H621V36.1Zm9.35,14.79h2.46c3.55,0,5.59-1.78,5.59-4.39s-1.73-4.12-4.86-4.18a16.14,16.14,0,0,0-3.19.21v8.36Z" transform="translate(-9.18 -6.08)" fill="#fff"/><path d="M662.2,61.45a21.35,21.35,0,0,0,9.14,2.19c3.24,0,4.81-1.09,4.81-2.87s-1.57-2.72-5.54-4.07c-6-2.1-9.87-5.39-9.87-10.61,0-6.22,5.22-11,14.1-11a22.79,22.79,0,0,1,9.56,1.83l-2,7.52a18.3,18.3,0,0,0-7.68-1.67c-2.87,0-4.44,1-4.44,2.61,0,1.78,1.88,2.51,6.32,4.18,6.32,2.29,9.19,5.69,9.19,10.61,0,6.06-4.75,11.28-15,11.28a25,25,0,0,1-10.35-2.19Z" transform="translate(-9.18 -6.08)" fill="#fff"/><path d="M93.37,11.86C102.12,12.12,112,10,116.11,7.33l-15.7-1.25L83.87,9.28C84.68,10.67,87.95,11.71,93.37,11.86Z" transform="translate(-9.18 -6.08)" fill="#fff" style="isolation:isolate"/><path d="M140,17.9a83.67,83.67,0,0,0,13.48-.42L141.06,9.31,120,7.64A5.59,5.59,0,0,0,118.62,9C116,12.89,124.6,17.15,140,17.9Z" transform="translate(-9.18 -6.08)" fill="#fff" style="isolation:isolate"/><path d="M137,30.93C136,38.28,145.87,48,165,56.32l15.85-20.88L157.1,19.85C145.93,21.13,137.88,25,137,30.93Z" transform="translate(-9.18 -6.08)" fill="#fff" style="isolation:isolate"/><path d="M71.29,78.76a78.93,78.93,0,0,0-6.79,12.3l65.12,11.86,30.74-40.5a102.37,102.37,0,0,0-24.74-8.54C110.58,48.88,85.68,57.55,71.29,78.76Z" transform="translate(-9.18 -6.08)" fill="#fff" style="isolation:isolate"/><path d="M48.35,48.83c-7.58-2.13-18.18-.81-29.61,3L9.18,81,53,89C65.11,67,61.37,52.47,48.35,48.83Z" transform="translate(-9.18 -6.08)" fill="#fff"/><path d="M77.4,14c2.39-1.59,3.2-3,2.73-4L62.63,13.38,49,20.72C57.4,21.53,71.05,18.23,77.4,14Z" transform="translate(-9.18 -6.08)" fill="#fff" style="isolation:isolate"/><path d="M46.68,22.37L46,22.31,24.69,33.74l-4.63,14.1A92.29,92.29,0,0,0,43.85,37C55.44,29.25,55.31,23.3,46.68,22.37Z" transform="translate(-9.18 -6.08)" fill="#fff" style="isolation:isolate"/></svg>